<svg width="16" height="10" viewBox="0 0 16 10" fill="none" xmlns="http://www.w3.org/2000/svg">
<path fill-rule="evenodd" clip-rule="evenodd" d="M0.666626 5C1.81996 2.07333 4.66663 0 7.99996 0C11.3333 0 14.18 2.07333 15.3333 5C14.18 7.92667 11.3333 10 7.99996 10C4.66663 10 1.81996 7.92667 0.666626 5ZM13.8799 5C12.7799 2.75333 10.5265 1.33333 7.99986 1.33333C5.47319 1.33333 3.21986 2.75333 2.11986 5C3.21986 7.24667 5.47319 8.66667 7.99986 8.66667C10.5265 8.66667 12.7799 7.24667 13.8799 5ZM7.99991 3.33333C8.91991 3.33333 9.66658 4.08 9.66658 5C9.66658 5.92 8.91991 6.66667 7.99991 6.66667C7.07991 6.66667 6.33325 5.92 6.33325 5C6.33325 4.08 7.07991 3.33333 7.99991 3.33333ZM5.00001 5C5.00001 3.34667 6.34667 2 8.00001 2C9.65334 2 11 3.34667 11 5C11 6.65333 9.65334 8 8.00001 8C6.34667 8 5.00001 6.65333 5.00001 5Z" fill="#2F80ED"/>
</svg>
